PathFileType	4	(X/Y/Z)	C:/Users/beibeiliu/ov580/test_trc/capture2\sequence.12_training_dense_right.trc
DataRate	CameraRate	NumFrames	NumMarkers	Units	OrigDataRate	OrigDataStartFrame	OrigNumFrames
120	120	22	19	mm	120	47	369
Frame#	Time	ThumbCMC			ThumbMCP			ThumbIP			ThumbTip			IndexMCP			IndexPIP			IndexTip			MiddleMCP			MiddlePIP			MiddleTip			RingMCP			RingPIP			RingTip			PinkyMCP			PinkyPIP			PinkyTip			BackHand1			BackHand2			BackHand3	
		X0	Y0	Z0	X1	Y1	Z1	X2	Y2	Z2	X3	Y3	Z3	X4	Y4	Z4	X5	Y5	Z5	X6	Y6	Z6	X7	Y7	Z7	X8	Y8	Z8	X9	Y9	Z9	X10	Y10	Z10	X11	Y11	Z11	X12	Y12	Z12	X13	Y13	Z13	X14	Y14	Z14	X15	Y15	Z15	X16	Y16	Z16	X17	Y17	Z17	X18	Y18	Z18	
46	0.383333	142.973	39.8236	24.3672	120.714	36.3231	1.97624	102.807	42.0402	-22.9871	100.236	40.7356	-42.8943	155.713	71.6295	-34.5601	134.678	64.3736	-55.7087	112.605	39.6197	-60.4258	184.388	61.8865	-46.6116	176.868	70.2128	-74.2842	164.27	70.1454	-101.435	194.526	44.9122	-46.5579	193.265	54.8544	-75.8508	185.376	60.5306	-101.182	201.543	16.4571	-51.0423	201.795	19.4152	-74.8568	205.721	26.1562	-93.3779	201.035	22.3322	-6.90185	203.575	9.91838	19.9242	186.166	41.4372	19.5482	
47	0.391667	146.711	36.7018	25.8379	118.25	37.2992	2.81264	102.824	42.0756	-19.0832	102.896	40.6773	-45.2915	155.937	71.5569	-33.5209	134.99	62.6378	-57.6671	112.754	44.1108	-59.7917	186.114	60.6387	-49.2972	176.882	69.7162	-77.5808	162.343	72.265	-103.496	195.671	43.4572	-47.2885	195.07	52.4925	-78.5085	185.942	59.2587	-100.236	199.947	17.0509	-50.0413	199.987	22.4318	-71.299	206.923	26.2755	-92.4891	202.865	21.6988	-3.13548	202.254	10.2511	24.7289	185.494	40.5597	23.1647	
48	0.4	144.189	37.6588	25.41	117.983	35.645	3.99175	103.396	40.6054	-21.8142	100.002	39.5462	-42.7522	154.941	70.3954	-40.3717	134.046	66.4655	-55.2842	116.449	41.8004	-62.0135	186.11	60.4002	-49.9221	177.486	69.5366	-75.1346	163.812	71.311	-103.021	195.613	46.1412	-48.1043	195.7	52.2733	-73.9682	185.816	58.4616	-105.188	199.824	15.816	-48.7105	203.254	17.054	-72.1677	206.982	25.1137	-92.4325	201.828	20.8011	-1.94839	204.188	10.2887	21.4769	185.496	41.5543	21.8855	
49	0.408333	146.023	36.9168	22.1476	119.542	36.2985	-2.46871	103.921	39.0217	-20.3749	101.255	39.2594	-46.751	157.576	68.1506	-37.9982	132.771	60.1523	-58.529	114.008	37.2424	-61.1914	184.708	61.7979	-45.041	179.995	66.8951	-79.0875	167.213	69.8283	-102	198.057	43.4164	-50.9753	195.257	54.1771	-73.7293	187.808	59.7689	-103.719	199.24	18.1575	-47.5455	202.83	17.4018	-72.3239	208.643	24.7165	-91.2296	202.487	22.5693	-4.09467	201.008	11.4175	21.67	186.725	41.4047	21.7312	
50	0.416667	142.324	39.0659	21.003	117.135	34.5948	-0.773419	104.636	37.9898	-21.6284	99.9397	40.0614	-49.0058	155.678	71.2774	-39.2405	133.101	62.9353	-58.5896	115.457	39.9602	-62.492	185.617	64.8816	-49.7831	179.56	70.4909	-73.6726	171.236	68.8282	-103.621	199.018	43.8357	-50.5568	197.152	52.9713	-74.1141	190.59	59.1936	-103.893	200.225	19.3173	-49.6586	202.163	24.3084	-71.3526	209.93	23.1248	-93.7131	201.148	27.1797	-5.24972	202.703	13.8172	21.2883	185.759	40.1044	21.2992	
51	0.425	141.083	37.6595	24.1558	119.98	34.8045	-4.30016	107.081	36.2975	-24.045	101.6	38.8796	-49.796	157.869	69.9676	-37.8006	136.581	62.1881	-57.6082	114.031	39.9167	-61.5265	185.696	63.2172	-45.541	180.403	71.5352	-72.4113	169.621	76.7492	-102.999	199.456	43.7688	-49.5211	196.219	57.9804	-75.9096	193.285	62.0822	-102.781	201.462	21.8654	-50.6579	203.798	21.0754	-70.0482	212.255	29.304	-94.8292	201.946	27.9248	-4.86712	204.338	11.1243	21.4217	185.09	43.9445	22.007	
52	0.433333	140.451	38.2333	22.0686	116.95	32.2291	-3.59451	106.924	34.4261	-27.365	99.0724	36.4301	-48.9564	152.519	69.1843	-41.3067	129.401	60.8731	-58.3136	115.03	31.7925	-63.0372	184.932	65.558	-49.1386	177.209	74.1031	-72.0342	172.403	76.3383	-102.508	196.824	49.7415	-50.6256	196.571	57.681	-74.3003	195.042	65.2817	-101.572	201.264	23.7194	-48.9007	203.878	26.7056	-70.5947	212.699	31.8235	-91.2432	202.958	27.7276	-4.07728	200.441	14.5098	25.2818	183.423	42.7817	20.1319	
53	0.441667	138.94	36.2812	21.4423	114.951	30.0098	-3.51891	104.189	30.8494	-25.6739	98.5079	33.6657	-53.9462	150.661	69.2338	-38.648	132.275	59.2274	-58.9532	118.106	32.4462	-64.6588	180.079	67.7411	-46.5444	176.945	74.8885	-76.2637	173.462	78.0769	-101.112	197.567	50.1377	-51.9875	197.743	57.4434	-73.688	193.389	69.5718	-100.038	202.876	23.1769	-48.1081	206.446	24.2047	-68.9143	214.316	34.375	-87.644	201.674	29.6779	-1.21636	200.751	17.9502	24.3261	180.144	47.7153	21.3981	
54	0.45	139.619	33.3909	19.4635	118.805	25.3053	-4.52424	104.433	28.1164	-30.1034	99.0463	27.8573	-50.7884	146.4	67.6544	-43.7327	125.732	54.0176	-61.389	116.03	29.042	-65.4214	178.254	68.5998	-49.4982	174.09	75.5624	-77.1065	169.404	80.9136	-99.3213	193.669	53.1812	-51.5926	197.845	57.5497	-74.2039	195.471	67.3076	-97.4914	203.524	27.446	-50.8224	206.531	29.19	-71.0846	219.097	35.8265	-91.7519	197.55	34.7582	-3.54253	200.664	19.3826	24.1148	177.745	50.4344	18.6326	
55	0.458333	138.711	32.1378	17.5401	118.944	24.26	-9.21847	104.328	23.4256	-29.1061	101.262	24.2676	-55.9914	142.391	67.1522	-41.8693	126.862	51.695	-61.8034	117.256	25.8282	-65.5203	176.149	68.2783	-48.9718	171.927	74.8568	-74.6441	169.218	80.2693	-103.852	194.402	51.0364	-49.4638	192.286	63.3731	-75.0193	197.204	68.0996	-99.3145	202.529	29.0636	-47.3649	209.157	29.8243	-70.1708	217.516	40.0166	-86.9108	198.467	37.0985	-3.38026	198.904	21.6336	24.8664	172.669	51.3599	19.6037	
56	0.466667	136.394	31.3237	16.8258	116.979	20.228	-9.99956	105.661	21.2603	-32.9319	100.681	21.2576	-56.621	140.954	65.5043	-43.6702	124.292	52.3362	-60.7694	116.631	20.2271	-64.2393	172.881	69.7309	-47.8261	170.409	74.224	-72.9278	165.018	80.6032	-101.152	189.403	55.8794	-47.6696	194.745	63.0985	-73.765	195.805	69.7506	-97.1583	201.326	34.5431	-47.1117	209.62	33.5641	-67.5713	220.419	40.0205	-87.2976	196.66	37.554	-1.08216	197.968	26.4268	25.3172	171.925	50.3089	18.5022	
57	0.475	133.235	28.9784	16.7012	114.743	19.069	-13.068	101.943	18.1069	-37.8015	103.258	17.699	-56.8523	136.107	65.9651	-41.945	123.455	48.0155	-64.4687	121.359	15.3929	-62.6053	170.253	70.3867	-49.1782	165.066	78.1965	-76.1778	162.632	80.7194	-101.837	189.626	57.5872	-48.0617	191.187	67.0686	-71.4948	189.332	77.5601	-96.275	204.843	37.6898	-48.4179	206.181	41.359	-66.4433	220.317	50.0311	-87.4144	191.467	43.6022	0.426295	195.928	31.0456	22.8835	168.422	51.3778	18.2232	
58	0.483333	131.324	27.8767	12.7639	114.717	13.7246	-12.0322	101.971	12.9316	-35.6792	105.579	14.1712	-61.9516	134.07	62.738	-44.3072	119.2	42.7698	-65.545	122.163	12.4999	-61.6797	164.929	71.7597	-47.7103	163.05	78.6022	-78.2	155.482	84.6292	-104.926	182.478	63.7266	-47.6053	188.738	70.2364	-73.8956	187.304	79.6116	-94.948	203.044	42.1627	-46.5098	207.725	45.6168	-66.2842	220.335	55.4051	-82.8033	190.368	44.1729	0.144903	193.437	32.5007	27.7899	163.093	51.6374	19.7111	
59	0.491667	130.45	24.4058	12.0356	112.214	10.6797	-14.0169	109.034	11.2385	-41.4637	108.023	10.7907	-63.156	127.332	60.3149	-45.1631	121.909	40.1914	-67.5828	129.472	8.22186	-62.8036	159.175	73.7877	-51.7678	156.727	79.7033	-77.7095	153.509	83.3995	-102.53	182.215	66.4506	-48.6903	185.607	74.5925	-72.5033	186.405	81.9993	-95.5895	201.47	46.4808	-43.8135	207.65	49.6225	-63.6186	215.22	60.3767	-80.7998	184.642	50.7504	-3.22363	189.508	37.4463	27.9149	159.024	52.3048	19.6353	
60	0.5	125.554	20.2931	13.2721	117.132	9.08784	-15.8894	107.462	6.95533	-41.8318	108.308	7.83996	-67.4796	126.527	58.7427	-50.3283	120.333	33.9125	-69.7694	128.643	3.8331	-61.8869	153.012	73.8434	-47.8035	148.771	79.2432	-75.0006	150.854	83.2576	-108.373	178.838	70.348	-50.7805	180.807	76.3867	-72.0026	182.112	85.5394	-97.1101	200.124	50.5605	-42.8236	202.138	58.2181	-65.4295	216.463	66.503	-77.8151	182.781	54.0541	-0.731198	185.993	41.7057	27.369	153.109	54.3836	16.3441	
61	0.508333	124.293	19.5528	9.08777	112.753	2.68999	-15.9582	106.646	2.01229	-44.6207	113.465	5.89716	-66.6496	122.382	56.8131	-46.1664	122.878	33.7315	-71.8142	128.829	5.86295	-64.3642	152.452	71.9337	-48.1549	144.798	79.2612	-77.1691	143.422	81.2518	-105.306	171.221	70.3311	-48.2392	174.719	77.9556	-68.8822	177.847	86.3523	-94.3231	194.358	56.8414	-44.2021	201.91	59.1785	-59.958	212.298	76.267	-78.6042	178.12	54.5945	-1.55384	181.634	43.3575	26.9625	145.333	52.0587	17.4886	
62	0.516667	122.087	16.5954	10.2883	115.481	1.07111	-17.5699	109.29	0.42494	-47.8739	112.667	2.25029	-69.1344	122.885	54.4894	-47.3259	122.322	35.3391	-71.1758	130.508	2.66536	-65.0669	147.736	74.6888	-52.0032	142.517	77.6688	-76.0631	144.016	79.9338	-107.791	171.942	69.4678	-46.2104	170.164	80.4583	-72.0563	174.242	88.924	-98.0609	195.267	56.5407	-40.0745	199.629	64.0501	-60.669	208.197	78.8144	-76.7476	173.966	54.3614	2.49074	180.382	43.8144	30.246	144.323	50.1811	15.6008	
63	0.525	120.897	13.8768	8.12325	116.419	-1.40955	-19.5011	109.766	-4.64015	-46.3955	114.457	-2.38019	-72.6567	121.64	51.8011	-48.9346	116.947	28.5111	-72.5621	135.74	1.55145	-65.4415	146.079	71.2044	-49.8778	142.642	75.4434	-74.4233	144.071	78.7409	-109.018	170.144	68.7079	-45.4373	172.248	77.8917	-70.14	173.513	85.358	-94.4325	192.98	57.4803	-38.8855	195.779	63.4685	-56.8665	208.019	79.4649	-71.0217	171.204	57.6983	0.948083	175.755	43.372	31.2385	139.217	48.293	15.7993	
64	0.533333	122.801	10.2794	12.5997	115.526	-4.54375	-21.4944	111.496	-10.0477	-44.5671	117.489	-4.93031	-71.5733	115.854	48.6216	-47.4208	117.852	23.9795	-73.1738	135.872	-1.1497	-66.6601	139.579	69.2739	-50.3416	142.279	73.3726	-77.2281	139.055	75.002	-106.262	166.567	68.647	-46.2361	171.16	79.1926	-73.6292	170.039	84.061	-93.5904	189.159	59.0098	-39.6089	197.118	65.9798	-57.793	209.015	79.9373	-68.6518	169.776	57.0728	0.152125	173.538	45.4022	30.6763	139.312	46.7452	17.2469	
65	0.541667	120.716	8.61394	9.71455	120.292	-5.83044	-19.9286	113.719	-10.9784	-45.3288	119.38	-8.85645	-69.3275	116.841	46.0332	-49.1475	123.714	23.9039	-74.0931	137.069	-1.33449	-69.0748	142.215	69.7818	-53.9382	140.758	71.079	-77.5441	138.001	71.4244	-105.59	162.536	68.5367	-49.2413	165.831	75.8108	-72.2746	167.373	82.885	-97.616	187.948	59.9888	-41.0701	198.723	66.5849	-59.2389	205.879	79.3568	-70.2899	167.196	55.5773	2.76784	169.197	43.4893	31.2696	137.69	49.1888	14.9119	
66	0.55	119.919	7.13494	8.81442	121.191	-8.46485	-19.0449	114.93	-12.627	-48.6045	122.292	-9.61003	-70.3244	118.584	42.5072	-53.6718	119.901	22.368	-74.6284	138.719	-7.39005	-67.1331	140.095	65.9727	-51.3012	139.649	69.4257	-79.0267	140.782	70.0262	-110.356	164.244	69.3771	-50.8705	167.835	76.1203	-74.9966	168.406	80.8544	-96.6995	187.759	59.9695	-39.2152	195.199	64.23	-54.8233	209.588	79.8313	-69.9389	167.111	58.211	-0.318587	169.197	45.1923	28.4573	136.127	45.3873	16.1132	
67	0.558333	119.04	5.91252	9.24772	121.417	-9.38122	-19.8308	119.741	-11.9448	-48.0325	123.022	-13.1137	-70.0742	118.869	40.8432	-54.1242	122.296	17.8266	-74.4307	142.861	-6.65616	-66.8693	136.569	64.3882	-56.1093	140.094	67.4935	-79.5837	141.402	68.2102	-108.113	164.679	66.5705	-46.2868	166.863	73.8246	-70.9846	169.967	79.7529	-96.5708	189.671	59.015	-37.4202	195.708	67.7673	-58.7691	208.087	79.6692	-69.0303	164.472	55.7696	2.44383	169.725	46.5592	31.768	132.085	45.9648	13.5251	
